<svg
  xmlns="http://www.w3.org/2000/svg"
  version="1.1"
  xmlns:xlink="http://www.w3.org/1999/xlink"
  xmlns:svgjs="http://svgjs.dev/svgjs"
  viewBox="0 0 600 600"
><path
    d="M572.455078125,76.64669799804688C579.341298421224,77.09579976399739,594.4610188802084,93.56286724408467,598.5029296875,81.1377182006836C602.5448404947916,68.71256915728252,696.1077328920364,14.970054944356283,596.70654296875,2.095803737640381C497.30535304546356,-10.778447469075521,101.49698348840077,-9.131741285324097,2.095790147781372,3.8922109603881836C-97.30540319283803,16.916163206100464,-3.2934313217798867,68.2634695370992,0.29938292503356934,80.23951721191406C3.8921971718470254,92.21556488672893,15.568843483924866,76.94610214233398,23.65267562866211,75.74849700927734C31.736507773399353,74.5508918762207,40.41914304097494,72.45508448282878,48.80237579345703,73.05388641357422C57.185608545939125,73.65268834431966,66.16764068603516,78.14370346069336,73.95207214355469,79.34130859375C81.73650360107422,80.53891372680664,86.52692794799805,81.13772074381511,95.50896453857422,80.23951721191406C104.49100112915039,79.34131368001302,118.5628547668457,74.99999237060547,127.84429168701172,73.95208740234375C137.12572860717773,72.90418243408203,144.01195907592773,74.40118916829427,151.1975860595703,73.95208740234375C158.3832130432129,73.50298563639323,163.92212677001953,70.95807520548503,170.9580535888672,71.25747680664062C177.99398040771484,71.55687840779622,183.23350524902344,74.8502934773763,193.41314697265625,75.74849700927734C203.59278869628906,76.64670054117839,222.45506540934244,76.19759623209636,232.03590393066406,76.64669799804688C241.6167424519857,77.09579976399739,243.56284840901694,78.89220937093098,250.89817810058594,78.44310760498047C258.23350779215497,77.99400583902995,267.6646499633789,74.99999109903972,276.0478820800781,73.95208740234375C284.43111419677734,72.90418370564778,291.7664337158203,72.6047871907552,301.19757080078125,72.15568542480469C310.6287078857422,71.70658365885417,324.8502705891927,70.95807647705078,332.63470458984375,71.25747680664062C340.4191385904948,71.55687713623047,338.92213948567706,72.90418243408203,347.9041748046875,73.95208740234375C356.88621012369794,74.99999237060547,375.29937235514325,77.39520517985027,386.52691650390625,77.54490661621094C397.75446065266925,77.69460805257161,405.3892008463542,75.74849955240886,415.2694396972656,74.85029602050781C425.14967854817706,73.95209248860677,436.2275136311849,72.30538686116536,445.808349609375,72.15568542480469C455.3891855875651,72.00598398844402,464.6706237792969,73.6526870727539,472.75445556640625,73.95208740234375C480.8382873535156,74.2514877319336,486.6766052246094,73.95208740234375,494.31134033203125,73.95208740234375C501.9460754394531,73.95208740234375,510.9281311035156,72.45508066813152,518.5628662109375,73.95208740234375C526.1976013183594,75.44909413655598,533.682627360026,82.18562444051106,540.1197509765625,82.93412780761719C546.556874593099,83.68263117472331,551.79638671875,79.49101257324219,557.1856079101562,78.44310760498047C562.5748291015625,77.39520263671875,565.568857828776,76.19759623209636,572.455078125,76.64669799804688C579.341298421224,77.09579976399739,594.4610188802084,93.56286724408467,598.5029296875,81.1377182006836"
    fill="#ffefa6"
    transform="matrix(2.406619233691086,0,0,2.406619233691086,-421.2170027724634,-55.56648013225863)"
    fill-opacity="1"
  /></svg>
