<svg xmlns="http://www.w3.org/2000/svg" viewBox="0 0 226.38 100.9"><path d="M181.94,97.54a3.16,3.16,0,0,0-1.5,0,2.67,2.67,0,0,0-1.56.71.5.5,0,0,1-.37.15.46.46,0,0,0-.33.11,1.69,1.69,0,0,1-.88.47,5.09,5.09,0,0,0-1.42.75,3.69,3.69,0,0,1-.93.52,5.65,5.65,0,0,0-1.57,1,.61.61,0,0,0-.27.38,8.4,8.4,0,0,1-.39,1.2c-.09.34-.29.66-.12,1a.28.28,0,0,1,0,.23,3.89,3.89,0,0,0-.24,2.21c0,.16.05.3.2.33.33.06.43.33.6.55a4.53,4.53,0,0,0,2,1.82,2.14,2.14,0,0,1,.44.3,1.71,1.71,0,0,0,.8.39,2.52,2.52,0,0,1,1.22.43.36.36,0,0,0,.29.08c.53-.24.91.15,1.3.35a14.5,14.5,0,0,0,2.2.72c.22.08.37.22.57.28.74.24,1.45.52,2.19.73.49.14,1,.3,1.48.4a5.22,5.22,0,0,1,1.22.22,2.9,2.9,0,0,1,.72.28.49.49,0,0,0,.27.11c.6-.11,1.09.31,1.62.34.75,0,1.39.51,2.15.4.9.33,1.87.34,2.8.59,1.16.31,2.31.68,3.46,1a9.67,9.67,0,0,0,2,.36,1,1,0,0,1,.3,0c1,.37,2.15.4,3.18.8.44.17.88.37,1.3.57a5.78,5.78,0,0,0,1.24.4,1.76,1.76,0,0,1,.41.11,1.33,1.33,0,0,0,1.46-.12,4.31,4.31,0,0,1,3-.66,1.19,1.19,0,0,1,1,.58,2.2,2.2,0,0,0,.48.53,2.91,2.91,0,0,1,1,2c0,.44.06.88.07,1.31a3.77,3.77,0,0,1-.67,1.84,2.87,2.87,0,0,1-.75,1.14c-.22.16-.07.43,0,.6a7.54,7.54,0,0,0,1.26,1.5,2.87,2.87,0,0,1,1.15,2.26,7.43,7.43,0,0,1,.15,1.34,4.71,4.71,0,0,1-1.5,3.29,3.72,3.72,0,0,1-1.71.9h-.06c-.72.2-.82.42-.65,1.18A7.57,7.57,0,0,0,211,137a2.45,2.45,0,0,1,.08,1.42,3.45,3.45,0,0,1-.48,1.76,10.62,10.62,0,0,1-2.18,2.16.87.87,0,0,1-.33.14,14.81,14.81,0,0,1-2.17.41,2.6,2.6,0,0,1-2-.85,6.54,6.54,0,0,1-1.39-2.08c-.11-.27-.27-.53-.36-.82s-.27-.47-.62-.31a.26.26,0,0,1-.23,0,13.33,13.33,0,0,0-2.44-.29c-1.09-.11-2.17-.12-3.26-.2a1.9,1.9,0,0,0-.88.12,3.49,3.49,0,0,1-1.75.27,10.85,10.85,0,0,0-4.12.44c-.41.13-.86.11-1.28.24-1.67.52-3.37.92-5.05,1.41-1.22.36-2.46.66-3.68,1s-2.26.62-3.39.95c-.69.21-1.39.38-2.09.54s-1.09.33-1.65.47a22.5,22.5,0,0,1-2.35.62,20.72,20.72,0,0,0-2,.5c-1.24.3-2.49.53-3.71.89a13.2,13.2,0,0,0-3,1,1.77,1.77,0,0,1-.88.15c-.26,0-.75-.49-.81-.78a.67.67,0,0,1,.39-.79,6.8,6.8,0,0,1,2.08-.87,1.36,1.36,0,0,0,.51-.18,1.88,1.88,0,0,1,.74-.23c.48,0,.93-.18,1.4-.25.66-.09,1.27-.31,1.91-.45l2-.46a2.91,2.91,0,0,1,.65-.09.83.83,0,0,0,.52-.11,3.47,3.47,0,0,1,1.13-.36c.81-.25,1.66-.37,2.46-.69a11.28,11.28,0,0,1,1.71-.53c1.62-.34,3.21-.79,4.81-1.22a14.67,14.67,0,0,0,1.42-.46,2.86,2.86,0,0,0,.66-.35,2.36,2.36,0,0,0-1.32,0,5.12,5.12,0,0,1-2,.21c-.32-.06-.61.14-.93.18-1.14.15-2.28.42-3.42.5s-2.38.42-3.56.61c-1.35.21-2.69.18-4,.33-.56.06-1.11.12-1.66.21a18.13,18.13,0,0,1-2.43.22,10.17,10.17,0,0,0-2.12.33c-1.24.29-2.48.58-3.71.89-.33.08-.67.11-1,.16-1.11.16-2.13.65-3.23.85a12.66,12.66,0,0,0-3.11,1c-.78.37-1.58.65-2.37,1a.9.9,0,0,0-.32.26,2,2,0,0,1-1.42.54.53.53,0,0,1-.53-.31,1.1,1.1,0,0,1,.08-1.24,3.71,3.71,0,0,1,.84-.75,10.85,10.85,0,0,1,2.24-1,10.77,10.77,0,0,0,2.37-.93,3.38,3.38,0,0,0-1.34-.18c-.85-.07-1.71-.06-2.56-.11a15.28,15.28,0,0,1-2,0c-.11,0-.23.06-.34.08a2,2,0,0,1-1.06.07,3.4,3.4,0,0,0-1.19,0c-.52.05-1,0-1.55.07a.76.76,0,0,1-.59,0,.79.79,0,0,0-.46,0l-2.2.12c-1.18.06-2.35-.06-3.52,0s-2.09-.15-3.15-.17c-.5,0-1-.12-1.54-.17-1.72-.19-3.39-.62-5.09-.93a3.27,3.27,0,0,0-1.13.09,13.08,13.08,0,0,1-4.32.2,9.55,9.55,0,0,1-2.61-.62,2,2,0,0,0-1.17-.15,4.12,4.12,0,0,1-1.93-.31,11.64,11.64,0,0,0-1.83-.45,6.15,6.15,0,0,1-1.63-.55,12.33,12.33,0,0,0-2.34-.84,2.65,2.65,0,0,1-.74-.34,9.66,9.66,0,0,0-1.88-.56,11.7,11.7,0,0,1-1.59-.68,9.78,9.78,0,0,0-1.5-.6,9.17,9.17,0,0,1-1.7-.82,4.57,4.57,0,0,0-1.61-.58,4.66,4.66,0,0,1-.81-.23,9.15,9.15,0,0,0-3.38-.15c-1.13.06-2.23.39-3.36.44a6.27,6.27,0,0,0-.93.22c-1,.21-2,.36-2.92.62s-1.79.48-2.7.63c-.65.11-1.29.24-1.93.41a2.77,2.77,0,0,1-1.84-.34.38.38,0,0,1-.19-.22,1.14,1.14,0,0,1,1-1.39c.71,0,1.38-.18,2.08-.17a13.08,13.08,0,0,0,2.92-.54,7.48,7.48,0,0,1,.95-.13c1.49-.17,2.93-.64,4.43-.75.88-.06,1.72-.31,2.64-.37-.12-.37-.47-.4-.69-.57s-.46-.36-.81-.19a.8.8,0,0,1-.59,0,7.27,7.27,0,0,0-3.5,0c-1.55.23-3.11.5-4.63.86-1.71.41-3.46.63-5.17,1a13.53,13.53,0,0,1-2.83.42c-.38,0-.73.21-1.11.24-.94.07-1.87.14-2.8.26a8.87,8.87,0,0,1-1.36,0,1.36,1.36,0,0,1-1.29-1,.57.57,0,0,1,.27-.66,2.76,2.76,0,0,1,1.43-.33c1.35-.2,2.72-.29,4.06-.58s2.74-.5,4.12-.7c.67-.1,1.31-.34,2-.46a7.93,7.93,0,0,0,1.29-.24c1.26-.42,2.6-.52,3.88-.84.52-.13,1-.24,1.59-.36-.08-.34-.41-.39-.57-.6a15.94,15.94,0,0,0-1.48-1.6,1.27,1.27,0,0,1-.45-.74c0-.33-.29-.51-.54-.68s-.29-.06-.39.12a.85.85,0,0,0-.1.45,2.57,2.57,0,0,1-.26,1.27.45.45,0,0,1-.24.25,3.72,3.72,0,0,1-1.8.32,2,2,0,0,1-1-.28c-.23-.18-.63-.07-.93,0-1.43.27-2.89.37-4.31.72a14.38,14.38,0,0,1-2,.3,14.54,14.54,0,0,0-1.82.34,26.64,26.64,0,0,1-2.67.32c-.17,0-.38,0-.53.07a5.6,5.6,0,0,1-2.23.59c-1.1.19-2.18.52-3.29.66a.31.31,0,0,0-.17,0c-.64.47-1.26.14-1.88,0a1.24,1.24,0,0,1-.53-.38.82.82,0,0,1-.05-1.08,1.44,1.44,0,0,1,.82-.56A4.81,4.81,0,0,1,62,129a3.51,3.51,0,0,0,.65-.09c1.25-.24,2.5-.52,3.76-.72.93-.14,1.84-.37,2.77-.48,1.64-.2,3.24-.64,4.88-.87a10.25,10.25,0,0,0,2.67-.56,3.33,3.33,0,0,1,.93-.09,1.61,1.61,0,0,0,.82-.23c-.14-.33-.26-.66-.42-1a.42.42,0,0,0-.58-.26,1.58,1.58,0,0,1-1.35-.31.86.86,0,0,0-1-.11,1.35,1.35,0,0,1-1,0,7.58,7.58,0,0,0-3,0c-.23,0-.48,0-.71.06-1.32.2-2.65.36-4,.64-1.61.35-3.25.55-4.86.93s-3.08.79-4.64,1.08a8.63,8.63,0,0,1-1.82.29,1.41,1.41,0,0,1-1.35-1,.59.59,0,0,1,.39-.72,3.16,3.16,0,0,1,1.2-.33,18.61,18.61,0,0,0,2.86-.59c1.16-.25,2.31-.57,3.49-.8.61-.11,1.24-.24,1.85-.41a14.3,14.3,0,0,1,2.06-.35,20.93,20.93,0,0,0,2.23-.44,7.36,7.36,0,0,1,1.23-.21c1.12,0,2.19-.38,3.28-.51.06-.19-.07-.24-.16-.29l-2-1a3.08,3.08,0,0,0-.57-.17c-.24-.08-.51-.08-.7-.3a.69.69,0,0,0-.38-.16,18.63,18.63,0,0,1-2-.47.41.41,0,0,0-.34,0,4.17,4.17,0,0,1-2.66.37,8.59,8.59,0,0,0-2.27.11q-2.28.27-4.56.66c-.82.14-1.62.37-2.46.43-.66,0-1.31.1-2,.2-1.17.16-2.34.17-3.52.22-.62,0-1.23,0-1.84,0a.81.81,0,0,1-.29-.09c-.15-.05-.35-.09-.33-.28s0-.49.3-.6a7.21,7.21,0,0,1,1.23-.23c.89-.23,1.83-.06,2.71-.38a1.66,1.66,0,0,1,.77,0,2,2,0,0,0,1-.18,4.22,4.22,0,0,1,1.32-.35,5.19,5.19,0,0,0,.93-.21,8.94,8.94,0,0,1,2.57-.34.16.16,0,0,0,.12,0c.82-.39,1.77-.27,2.61-.61a1.74,1.74,0,0,1,.65,0,1,1,0,0,0,.41-.07c.19-.08.22-.23,0-.35a4.78,4.78,0,0,0-.61-.38c-.31-.14-.62-.27-.94-.38a.93.93,0,0,0-.64,0,.93.93,0,0,1-1-.3c-.1-.1-.18-.25-.32-.26a18.2,18.2,0,0,1-2.28-.82,5.69,5.69,0,0,1-1.12-.38,2.41,2.41,0,0,0-1.63,0c-.16,0-.33.17-.5.16a7.89,7.89,0,0,0-2,.43c-.9.22-1.78.57-2.67.86-.13,0-.26.09-.4.12a16.89,16.89,0,0,0-4.5,1.8,8.65,8.65,0,0,0-1.14.66,1.24,1.24,0,0,1-1,.13.42.42,0,0,1-.3-.26.93.93,0,0,1,.47-1.27A17.61,17.61,0,0,1,43,116.61c.28-.11.57-.2.85-.3a2.62,2.62,0,0,0,.4-.11,17,17,0,0,1,2.37-.81c.34-.12.65-.33,1-.22a.17.17,0,0,0,.12,0c.67-.37,1.44-.46,2.13-.77a.29.29,0,0,0,.21-.24c-.64-.24-1.26-.54-1.88-.84a.87.87,0,0,0-.53,0c-.83.11-1.66.18-2.49.28a20,20,0,0,0-3.88,1.12c-.69.23-1.32.61-2,.79a10.52,10.52,0,0,1-1.37.1c-.19,0-.45-.33-.48-.61s0-.47.32-.56a8.28,8.28,0,0,1,1.4-.49,5.22,5.22,0,0,0,.84-.29c1-.33,1.93-.64,2.9-.95a2.09,2.09,0,0,0,.23-.08,5.3,5.3,0,0,1,2.14-.59.21.21,0,0,0,.19-.13.19.19,0,0,0-.09-.25c-.31-.14-.56-.41-.87-.52a2.54,2.54,0,0,1-.77-.44,16.35,16.35,0,0,0-2.2-1.4,7.39,7.39,0,0,1-1.3-1.08c-.25-.27-.57-.48-.82-.77a18.07,18.07,0,0,1-1.47-1.56c-.13-.19-.29-.38-.43-.57a.92.92,0,0,1-.22-.54c0-.1,0-.23,0-.3-.58-.78-.12-1.41.38-1.93a8.69,8.69,0,0,0,1.32-2A3.73,3.73,0,0,1,40.19,99,2,2,0,0,0,41,98a2.65,2.65,0,0,1,.79-1,4.78,4.78,0,0,0,.65-.7,3.27,3.27,0,0,1,.79-.87,1.58,1.58,0,0,0,.6-.66,11.67,11.67,0,0,1,1.06-1.6,1.52,1.52,0,0,1,.35-.32,3.41,3.41,0,0,0,1-1.13c.11-.2.31-.29.45-.46.49-.57,1-1.17,1.43-1.75.62-.77,1.43-1.36,2-2.15.13-.18.19-.31,0-.47-.38-.38-.55-.89-.94-1.28a21.57,21.57,0,0,1-1.41-1.75,17,17,0,0,0-1.11-1.3,13.4,13.4,0,0,0-1.32-1.18c-.3-.23-.28-.67-.46-1a2.49,2.49,0,0,1,0-2.21,2.57,2.57,0,0,1,1.14-1.52,1,1,0,0,0,.49-.5,1.68,1.68,0,0,1,.53-.64,19.28,19.28,0,0,0,1.57-1.43c.14-.17.37-.22.55-.35.87-.66,1.66-1.42,2.56-2a35.45,35.45,0,0,0,3-2.27c.46-.4,1-.74,1.41-1.17A16.3,16.3,0,0,1,57.92,67c.31-.26.69-.43,1-.73s.69-.2.92-.51a2.53,2.53,0,0,1,.59-.49c.28-.2.57-.37.86-.54a2.75,2.75,0,0,0,1-.87c.31-.45.59-1,1.29-1,.2,0,.33-.19.48-.32.32-.29.64-.62,1.15-.5a.16.16,0,0,0,.12,0c.46-.31.91-.07,1.37,0a6.21,6.21,0,0,0,2.54,0,1.13,1.13,0,0,1,.41,0,17.91,17.91,0,0,0,3,0c.66,0,1.31-.09,2-.1a3.35,3.35,0,0,0,.89-.12,2,2,0,0,1,1.17-.06.28.28,0,0,0,.3-.1c0-.3-.32-.41-.48-.62-.42-.61-.89-1.18-1.3-1.8-.19-.29-.57-.34-.72-.57s-.14-.57-.35-.8-.16-.25-.27-.31a3.28,3.28,0,0,1-1.36-1.63,6.4,6.4,0,0,0-.66-1.17.92.92,0,0,0-.46-.37,6.47,6.47,0,0,1-1-.63.32.32,0,0,1-.18-.29.4.4,0,0,0-.2-.35.86.86,0,0,1-.41-.92A1.7,1.7,0,0,1,70,51.15c.07-.07.21-.1.24-.18.18-.54.67-.48,1.08-.56s.63,0,1,0,.29.1.42.2a.79.79,0,0,0,.78.15,2.57,2.57,0,0,1,.83-.07,1.41,1.41,0,0,0,.75-.15,1.17,1.17,0,0,1,.46-.07,12.09,12.09,0,0,1,2.4.27c.51.05,1,.22,1.53.23a14,14,0,0,1,3.17.32.69.69,0,0,0,.35,0c.12,0,.27-.06.35,0,.58.36,1.3.14,1.89.48.21.13.47,0,.7-.08a.94.94,0,0,1,1.06.06.4.4,0,0,0,.16.08,1.18,1.18,0,0,1,1.07,1.11.84.84,0,0,0,.93.49,4.07,4.07,0,0,1,1.63-.06,1,1,0,0,0,0-.77A3.4,3.4,0,0,1,91.17,50a6,6,0,0,1,.77-1.25,4.22,4.22,0,0,1,.77-.64,6.09,6.09,0,0,1,1.63-.94,18.62,18.62,0,0,1,2-.6,3.9,3.9,0,0,1,2.82.46c.35.2.62.55,1,.75a.37.37,0,0,1,.18.4,2.72,2.72,0,0,0,.14,1.06,8.66,8.66,0,0,1,.17,2,1.56,1.56,0,0,0,1.09,1.45c.73.27,1.53.24,2.24.58.19.09.29,0,.4-.16a7.88,7.88,0,0,0,.73-1.3c0-.07,0-.2.07-.22.54-.26.73-.87,1.21-1.18a19.35,19.35,0,0,0,1.77-1.51,1.4,1.4,0,0,1,.33-.26A19.5,19.5,0,0,0,111,47.23c.26-.16.57-.18.82-.33a6.48,6.48,0,0,1,2-.54,13.73,13.73,0,0,1,2.12-.22,28.25,28.25,0,0,1,2.91,0,12.28,12.28,0,0,1,4.14.73,5.11,5.11,0,0,1,1.52.74c.21.18.55.17.82.32a8,8,0,0,1,1.68,1.21,6,6,0,0,0,1.2.85c.48.3,1.07.51,1.3,1.16a2.91,2.91,0,0,0,.76.89,7.44,7.44,0,0,1,1,1.72,9.56,9.56,0,0,0,.9,1.26,2.27,2.27,0,0,1,.6,1.31c0,.33.35.59.26,1,.36.42.15,1,.3,1.43a.18.18,0,0,1,0,.12c-.12.33.37.53.19.89a1.06,1.06,0,0,0,0,.92.49.49,0,0,1,0,.24,5.52,5.52,0,0,0-.14,1.94,1,1,0,0,1-.12.46,5.5,5.5,0,0,0-.42,1.24c-.21.92-.63,1.76-.92,2.64-.12.34-.09.37.27.33a2.42,2.42,0,0,1,1.46.37.58.58,0,0,0,.55.1.76.76,0,0,1,.47,0,15.14,15.14,0,0,0,3,.21,22,22,0,0,1,2.29.29,5,5,0,0,0,.77.09c1.08,0,2.15.19,3.22.27a9.74,9.74,0,0,0,1.95-.09,11.85,11.85,0,0,1,2.31.13c.35,0,.61.39.93.35s.62-.26,1-.28a2.62,2.62,0,0,1,1.29.14,7,7,0,0,0,1.47.2,29.85,29.85,0,0,0,3.14.35c1.28.11,2.56.27,3.84.38.85.07,1.71.08,2.56.15s1.43.09,2.14.2,1.19,0,1.78.13a18,18,0,0,0,2.32.07c.91,0,1.82.12,2.73.22a11,11,0,0,0,1.72.11,14.93,14.93,0,0,1,1.6.21c.61,0,1.22.14,1.83.23.29,0,.51-.06.53-.34,0-.48.37-.59.72-.67.64-.14,1.27-.29,1.92-.4a18.58,18.58,0,0,0,2-.65c.68-.21,1.33-.55,2-.77,1-.32,1.92-.86,2.89-1.26a4.49,4.49,0,0,0,1.19-.65,9.64,9.64,0,0,1,1.3-.58c1-.57,2-1.06,3-1.64a4.64,4.64,0,0,1,1.25-.65c.49-.11.78-.53,1.11-.87a2.89,2.89,0,0,1,1.4-.74.68.68,0,0,1,.67.17,6.54,6.54,0,0,0,.52.4.83.83,0,0,1,.29,1,8.6,8.6,0,0,1-.61,1.36c-.22.31-.27.74-.52,1a.2.2,0,0,0,0,.23.22.22,0,0,0,.27.06c.18-.07.36-.17.54-.24a20.57,20.57,0,0,0,2.42-1A5.82,5.82,0,0,0,201.35,64a.72.72,0,0,1,.25-.16,17.18,17.18,0,0,0,3-1.85c.67-.45,1.41-.81,2.05-1.33.81-.66,1.78-1.13,2.54-1.87.31-.3.75-.45,1.08-.74a5.68,5.68,0,0,0,.57-.52,1.45,1.45,0,0,1,1.82-.3c.14.08.29.15.42.24a1.11,1.11,0,0,1,.46,1.29,3.25,3.25,0,0,0-.2.74c0,.22-.19.34-.32.49-.41.44-.82.87-1.22,1.32a.91.91,0,0,0-.28.57,2.7,2.7,0,0,0,.94-.43,5.54,5.54,0,0,0,1.54-1,1.51,1.51,0,0,1,.49-.33,29.61,29.61,0,0,0,2.64-1.62c1-.63,1.92-1.32,3-1.87a3.85,3.85,0,0,0,1.18-.91,2,2,0,0,1,1.68-.74.89.89,0,0,1,.72.23c.27.32.66.52.87.89a.54.54,0,0,0,.61.28,12.76,12.76,0,0,0,2.59-.44,5.21,5.21,0,0,1,1.06-.14c1.3-.16,2.59-.42,3.89-.62.9-.14,1.78-.39,2.69-.51a7.1,7.1,0,0,1,1.15-.23,2.35,2.35,0,0,1,1.86.69,2.24,2.24,0,0,0,1.05.39c.63.16,1.28.25,1.91.47a7.73,7.73,0,0,0,1.27.26c.65.1,1.27.34,1.91.48a14.87,14.87,0,0,0,2.19.53,1.09,1.09,0,0,1,.39.15c.69.29,1.37.64,2.07.9a20.61,20.61,0,0,0,2.63,1.19s.09,0,.11.05a7.61,7.61,0,0,0,2.58,1.32,3.21,3.21,0,0,1,1.34,1.24A3.88,3.88,0,0,0,257,63.24c.88.58,1.6,1.36,2.47,1.95.37.67,1.13,1,1.46,1.72a16.82,16.82,0,0,1,1.34,3,11.56,11.56,0,0,1,.48,1.72,16.9,16.9,0,0,1,.21,2,1.71,1.71,0,0,0,.21.86,2.16,2.16,0,0,1,0,1.69A6.22,6.22,0,0,1,262,78.62c-.66.77-1.41,1.46-2,2.27a8.76,8.76,0,0,1-1.15,1.28,10.87,10.87,0,0,1-2.08,1.56,13.26,13.26,0,0,1-1.59.82c-.39.13-.79.13-1.16.26a27.12,27.12,0,0,1-3.24,1,21,21,0,0,1-2.1.4c-.76.09-1.52.24-2.28.39a4.84,4.84,0,0,1-.94.13,2.25,2.25,0,0,0-.76.13,5.46,5.46,0,0,1-1.84.25c-.6,0-1.17.19-1.77.19-.27,0-.32.17-.23.47a13.91,13.91,0,0,0,.7,1.32,1.37,1.37,0,0,1,.12,1.15.47.47,0,0,0,0,.17.94.94,0,0,1-.3.91,1.92,1.92,0,0,1-1.34.57,13.81,13.81,0,0,1-3.49-.45c-.66-.19-1.36-.27-2-.49-1.38-.45-2.76-.87-4.14-1.33-.43-.15-.83-.38-1.28-.49a1.41,1.41,0,0,0-.41-.07c-.14,0-.2.1-.13.25a.81.81,0,0,0,.36.3.86.86,0,0,1,.5,1,1.86,1.86,0,0,1-.08.41c-.1.27.05.58-.22.84a2.92,2.92,0,0,1-1.5.81,1.41,1.41,0,0,1-1-.32,6,6,0,0,0-1.12-.52c-1.09-.48-2.27-.73-3.33-1.3a18.77,18.77,0,0,0-2.46-1.12,4.67,4.67,0,0,0-2.1-.34,1.19,1.19,0,0,1-1.28-.57.77.77,0,0,0-.45-.28c-.44-.16-.65,0-.58.48a4.67,4.67,0,0,1-.39,3,6.16,6.16,0,0,1-.9,1.26,7.13,7.13,0,0,1-1.4,1.18,2.9,2.9,0,0,1-1.85.61A2,2,0,0,1,209,94.1c-.24-.35-.62-.55-.87-.89a1,1,0,0,0-1-.27,5.33,5.33,0,0,0-2,.31.5.5,0,0,1-.29.07,4.65,4.65,0,0,0-2.47.3,4.68,4.68,0,0,1-1.29.25,2,2,0,0,0-1.3.52,1.78,1.78,0,0,1-1,.39,5.71,5.71,0,0,0-1.65.64c-.49.22-.94.51-1.45.7-.05,0-.12,0-.16.07A18.86,18.86,0,0,1,192.34,98l-2.43,1.39c-.48.27-.94.61-1.43.85-1,.48-1.9,1.1-2.85,1.65-.41.24-.81.49-1.24.7a1.73,1.73,0,0,0-.78.78,1.83,1.83,0,0,1-2.32.74.77.77,0,0,1-.22-1.4,5.77,5.77,0,0,1,1.77-1.2,3.89,3.89,0,0,0,.84-.57c.53-.39,1.17-.6,1.71-1a28.55,28.55,0,0,0,3.33-2.08,2.18,2.18,0,0,1,.9-.45,1.49,1.49,0,0,0,.7-.45.17.17,0,0,0,0-.22.19.19,0,0,0-.2-.1c-.91.09-1.82,0-2.73.1a1,1,0,0,0-.5.17,29.94,29.94,0,0,1-3.17,1.91c-.91.5-1.73,1.13-2.64,1.62a26.62,26.62,0,0,0-2.81,1.9,8.2,8.2,0,0,0-.93.84.93.93,0,0,0-.21.42,1.37,1.37,0,0,1-2.09.7,1.19,1.19,0,0,1-.19-1.52.71.71,0,0,1,.19-.23c.73-.52,1.38-1.14,2.1-1.68s1.58-1,2.3-1.58,1.34-.84,2-1.35A1.41,1.41,0,0,0,181.94,97.54Z" transform="translate(-36.99 -46.1)" fill-rule="evenodd"/><path d="M200.05,141a2.11,2.11,0,0,0-.83.1,7.22,7.22,0,0,1-1.67.16,10.37,10.37,0,0,0-2,.35c-1.23.24-2.45.54-3.69.75-1.09.19-2.18.45-3.27.63s-2.06.42-3.07.68-2.25.5-3.37.79c-.6.15-1.21.27-1.82.36a9.46,9.46,0,0,0-2,.56c-.94.35-1.92.53-2.87.84a12.9,12.9,0,0,1-1.38.57,6.52,6.52,0,0,1-.63.18.87.87,0,0,1-1.12-.55c-.2-.45.05-.88.52-1.2a7,7,0,0,1,2.32-.81c.79-.21,1.59-.38,2.37-.61a9.9,9.9,0,0,1,2.24-.54,3,3,0,0,0,1.09-.25,17.31,17.31,0,0,1,2.62-.58,39.63,39.63,0,0,1,4.48-1,10.46,10.46,0,0,0,2.36-.64,1.89,1.89,0,0,1,.4-.08c1-.2,1.94-.45,2.92-.65a5.54,5.54,0,0,1,2.33-.32.37.37,0,0,0,.23,0,4.16,4.16,0,0,1,2-.32,5.55,5.55,0,0,1,2.07.09c.12,0,.24,0,.36,0a1.37,1.37,0,0,1,.35,0,1,1,0,0,1,.84.59c0,.24-.2.53-.64.7S200.47,141.16,200.05,141Z" transform="translate(-36.99 -46.1)" fill-rule="evenodd"/><path d="M101.08,142.34a7.22,7.22,0,0,0-4.46,1.24,5.18,5.18,0,0,1-.73.4,14.11,14.11,0,0,0-2.32,1.34,2.15,2.15,0,0,1-1.33.59,1.64,1.64,0,0,1-.74-.17.84.84,0,0,1-.12-1.26.91.91,0,0,1,.44-.31,5.8,5.8,0,0,0,2.1-1.2l0,0c1.12-.27,2-1.13,3-1.48a.87.87,0,0,0,.27-.14,3.82,3.82,0,0,1,2.44-.57,1.18,1.18,0,0,0,.42,0,3.62,3.62,0,0,1,2.15.33.3.3,0,0,1,.21.46A1.68,1.68,0,0,1,101.08,142.34Z" transform="translate(-36.99 -46.1)" fill-rule="evenodd"/><path d="M195.39,100.1a.7.7,0,0,1-.47-.13c-.31-.24-.35-.44-.09-.75a11.07,11.07,0,0,1,2.29-2.14,2.78,2.78,0,0,0,.64-.54,11.59,11.59,0,0,1,1.41-1.1,8,8,0,0,1,1.4-.85,1.79,1.79,0,0,1,2.14.39.51.51,0,0,1,.09.65,1.75,1.75,0,0,1-1.24.93,3.16,3.16,0,0,0-1.21.62,7.43,7.43,0,0,1-1.29.86c-.3.15-.44.47-.77.61-.88.38-1.65.95-2.53,1.34A.92.92,0,0,1,195.39,100.1Z" transform="translate(-36.99 -46.1)" fill-rule="evenodd"/><path d="M106.67,143.36a6.63,6.63,0,0,0-3.17.95c-.86.49-1.75.94-2.6,1.46a1.26,1.26,0,0,1-1.31.08.67.67,0,0,1-.2-1.08,1.93,1.93,0,0,1,1.09-.67,1.22,1.22,0,0,0,.88-.46c.15-.21.42-.22.63-.34.64-.35,1.28-.7,2-1a14.12,14.12,0,0,1,1.87-.62,2,2,0,0,1,1.39.14,1.86,1.86,0,0,0,1.11.13c.24,0,.49-.1.63.18a.57.57,0,0,1-.26.73,3,3,0,0,1-1.68.54A2,2,0,0,0,106.67,143.36Z" transform="translate(-36.99 -46.1)" fill-rule="evenodd"/><path d="M85.42,144.81a1.78,1.78,0,0,1,.53-1.57c.38-.43.71-.91,1.12-1.3a4.2,4.2,0,0,1,1-.63,2.94,2.94,0,0,1,2.29-.11,1.54,1.54,0,0,1,.86.34.52.52,0,0,1,.16.37,1.07,1.07,0,0,1-.89.9c-.42,0-.82.13-1.24.13a.7.7,0,0,0-.29.08,3.57,3.57,0,0,0-1.72,1.73,1,1,0,0,1-1,.78,1.54,1.54,0,0,1-.7-.14C85.28,145.25,85.42,145,85.42,144.81Z" transform="translate(-36.99 -46.1)" fill-rule="evenodd"/><path d="M81.45,125.3a17.69,17.69,0,0,1-1.82-2.24c-.44-.68-1-1.28-1.5-1.93a.64.64,0,0,0-.62-.25,2,2,0,0,0-.75.18,1.54,1.54,0,0,1-1.58-.23c-1-.66-2.11-1.11-3.14-1.71s-1.89-.8-2.81-1.25c-.33-.16-.71-.08-1-.26-.12-.06-.31-.08-.32-.22,0-.39-.33-.54-.58-.75s-.42-.34-.74-.21a.57.57,0,0,1-.29,0,17.59,17.59,0,0,1-3.77-1.05A5.78,5.78,0,0,0,61.3,115a5.1,5.1,0,0,1-1.95-1.23c-.35-.27-.6-.57-1.14-.53a1.62,1.62,0,0,1-1-.25.87.87,0,0,0-.45-.1,3.7,3.7,0,0,1-1.52-.47,7,7,0,0,0-1.37-.39,7.34,7.34,0,0,1-1.12-.37c-.48-.24-1-.21-1.52-.49-.31-.19-.34-.2-.06-.42a.5.5,0,0,0,.18-.68,1.76,1.76,0,0,1-.11-.88c0-.68,0-1.35.09-2,0-.29,0-.59.11-.88.14-.69.3-1.36.45-2,0,0,0-.09,0-.12.52-1.06.56-2.27,1.11-3.33A16.19,16.19,0,0,0,53.68,99a6.31,6.31,0,0,1,1-1.76c.51-.65,1-1.34,1.54-1.94a10.81,10.81,0,0,1,1.23-1.21,3.52,3.52,0,0,0,.55-.54,16.86,16.86,0,0,1,2.48-1.8,2.46,2.46,0,0,0,.95-2c0-.28.08-.38.33-.31a2.18,2.18,0,0,0,1.47,0,.58.58,0,0,1,.51.06c.79.38,1.59.72,2.4,1a3,3,0,0,0,1,.35c.23,0,.36.28.55.43s0,.18,0,.27a1.39,1.39,0,0,1-.9.65c-.19,0-.39.07-.58.12a1.3,1.3,0,0,0-1,1.32.59.59,0,0,0,.35.46,8,8,0,0,0,1.57.79,1.41,1.41,0,0,0,1.36-.38c.07-.06.1-.21.2-.19.4.08.54-.28.79-.45s.29-.29.49-.33.35-.23.52-.36a5.14,5.14,0,0,0,1.66-3.38,1.13,1.13,0,0,1,.1-.34,1.7,1.7,0,0,0,.22-1c0-.3.19-.57.13-.88s-.46-.73-.68-1.11c-.06-.1-.22-.08-.33-.07a2.32,2.32,0,0,1-.65-.1,2.22,2.22,0,0,0-1.56.37.88.88,0,0,0-.4.63c-.16.68-.5.85-1.12.61-.39-.15-.82-.15-1.22-.31a6,6,0,0,1-.73-.33,1.63,1.63,0,0,0-.93-.34c-.23,0-.32-.28-.5-.4a.53.53,0,0,1-.26-.55c0-.36-.23-.67-.28-1,0-.14-.13-.3,0-.4.32-.35.06-.57-.14-.81a1,1,0,0,1-.21-.55,7.71,7.71,0,0,1-.08-1.59c.06-.76-.13-1.51,0-2.27a6.18,6.18,0,0,1,.2-.93c.16-.52.1-1.07.23-1.59a6.83,6.83,0,0,1,.25-1c.28-.72.5-1.46.71-2.21A9,9,0,0,1,66,71.31a25.12,25.12,0,0,1,1.56-2.39,2.78,2.78,0,0,1,.71-.7,2.32,2.32,0,0,0,1-2.46,1,1,0,0,0-1-.72c-.28.07-.56.07-.82.15a1.9,1.9,0,0,0-.85.47A8.67,8.67,0,0,0,65,67.86,12.64,12.64,0,0,1,64,69.3a.93.93,0,0,0-.21.29,22.17,22.17,0,0,1-1,2.2c-.27.71-.56,1.41-.82,2.12a17.75,17.75,0,0,0-.61,1.73c-.14.5-.2,1-.29,1.53,0,.25-.07.52-.13.77a10,10,0,0,0-.11,4c.12.88.1,1.77.29,2.66.1.45-.07,1,.1,1.45a.12.12,0,0,1-.07.15c-.56.32-.54.91-.6,1.42a4,4,0,0,1-.07,1c-.1.22-.54.28-.81.44a7.7,7.7,0,0,0-1.58,1c-.2.19-.52.31-.76.51-.64.52-1.11,1.19-1.73,1.72a15.79,15.79,0,0,0-1.59,1.77c-.42.48-.81,1-1.24,1.45a1.35,1.35,0,0,0-.21.48c-.57,1.27-1.18,2.53-1.65,3.84a23.3,23.3,0,0,0-.87,2.64,5.4,5.4,0,0,1-.49,1.65.51.51,0,0,0-.08.34,13.61,13.61,0,0,1-.15,2.21c0,.41-.09.82-.09,1.24a5.24,5.24,0,0,0,.29,1.76,1,1,0,0,1,.1.63c-.11.11-.23,0-.34,0a17.23,17.23,0,0,1-2-1.18c-.22-.13-.4-.34-.68-.34a.24.24,0,0,1-.16-.07A21.88,21.88,0,0,0,43.6,107a11.3,11.3,0,0,1-1.67-1.42c-.06-.06-.09-.16-.15-.18a.67.67,0,0,1-.54-.74c0-.32-.1-.63.16-.9a.26.26,0,0,0,.08-.21,2.12,2.12,0,0,1,.71-1.76,4.62,4.62,0,0,0,.69-1.16A4.53,4.53,0,0,1,44.25,99a5.73,5.73,0,0,0,1.16-1.42,28.56,28.56,0,0,1,3.21-4.15c.34-.34.56-.8.88-1.18.45-.54,1-1,1.41-1.6a9.23,9.23,0,0,1,1.18-1.16c.5-.48,1.13-.85,1.68-1.3a1.63,1.63,0,0,0-.23-2.77A8.49,8.49,0,0,1,51.69,84c-.53-.54-1-1.08-1.51-1.65a.89.89,0,0,0-.28-.23,1.54,1.54,0,0,1-.68-.81,3.6,3.6,0,0,0-.54-.85,1,1,0,0,1-.21-1.1,4.94,4.94,0,0,1,.6-1.35c.12-.15.19-.35.39-.43,0,0,.13-.06.14-.11.25-.93,1.23-1.18,1.73-1.9a4.52,4.52,0,0,1,1.5-1.14,1,1,0,0,0,.33-.24,10.46,10.46,0,0,1,2.1-1.83A16.54,16.54,0,0,0,56.94,71a12,12,0,0,1,2.46-1.68,4.44,4.44,0,0,0,.84-.64,12.51,12.51,0,0,1,2.19-1.64,2.69,2.69,0,0,0,.44-.31,3.18,3.18,0,0,1,1.55-.83A2.9,2.9,0,0,0,65.9,65a.74.74,0,0,1,.46-.22,7.72,7.72,0,0,1,1.36,0,4.11,4.11,0,0,0,1.31,0c.26-.06.46.09.7.11a8.81,8.81,0,0,0,1.36-.11c.66-.06,1.31,0,2,0s1.27-.07,1.9-.1a9.34,9.34,0,0,1,3,.15c.47.14,1,.1,1.46.28a.89.89,0,0,1,.65.71c.09.63.59,1,1,1.4s.7.58.91,1a4.53,4.53,0,0,0,.91,1.11c.82.88,1.63,1.79,2.47,2.66.4.41.81.81,1.2,1.23a2.94,2.94,0,0,1,.79,1.25.52.52,0,0,1-.28.69.79.79,0,0,0-.45.52,2,2,0,0,1-.54.77c-.28.25-.33.69-.61,1a15.32,15.32,0,0,0-1.32,2.33A18.07,18.07,0,0,0,82.88,82a30.3,30.3,0,0,0-1.15,2.85A18.86,18.86,0,0,0,81.2,87a29.6,29.6,0,0,0-.55,3.35,12.76,12.76,0,0,0-.23,3.15,11.64,11.64,0,0,0,.19,1.3,3.05,3.05,0,0,1,.1,1c0,.48.73,1,1.26.92a1,1,0,0,0,.94-1.14c-.06-.88,0-1.76,0-2.64a21.77,21.77,0,0,1,.28-2.67,23.77,23.77,0,0,1,1-3.88A16.59,16.59,0,0,1,86,82.32a14.64,14.64,0,0,1,1.9-2.66,2.75,2.75,0,0,0,.26-.4c.23-.3.41-.65.77-.81a.87.87,0,0,0,.45-.46c.33-.72,1-1,1.63-1.32a1,1,0,0,0,.51-.8c0-.45,0-.89.48-1.18a.52.52,0,0,0,.16-.55c-.19-.69-.19-1.48-1-1.91a1,1,0,0,1-.31-.5,2.78,2.78,0,0,1,1-3.39.44.44,0,0,1,.45-.09c.44.17.87.33,1,.89s.53.88.64,1.4a1.51,1.51,0,0,1,0,.76,1,1,0,0,0,0,.3,2.66,2.66,0,0,0,1.23,1.68,1,1,0,0,1,.31.16.48.48,0,0,0,.46.09,9.38,9.38,0,0,1,1.22-.44,1.2,1.2,0,0,0,.71-1.1A2.15,2.15,0,0,1,99,70.18a3.86,3.86,0,0,1,1.14-.63,2.47,2.47,0,0,1,2.47,3.75.18.18,0,0,0,0,.11c0,.83-.65,1.17-1.1,1.66a1.08,1.08,0,0,0-.35.72c0,.18,0,.36,0,.53a1.54,1.54,0,0,0,1,1.58,1.8,1.8,0,0,1,.49.22.51.51,0,0,0,.51,0c.62-.29,1.26-.54,1.88-.83a1.26,1.26,0,0,1,1.61.31,1.63,1.63,0,0,1,.41,1.54l-.21.93a2.4,2.4,0,0,1-1.07,1.44.36.36,0,0,1-.33.09,1.83,1.83,0,0,0-1.18.19,2.39,2.39,0,0,0-1.2.9,1.9,1.9,0,0,0-.53,1.51A5,5,0,0,1,102,86.6a1,1,0,0,0,.2,1.09,1.78,1.78,0,0,1,.3.64,5,5,0,0,1,.19,1.68.74.74,0,0,0,.14.57.29.29,0,0,1,.08.21,4.2,4.2,0,0,0,.84,2.46.91.91,0,0,1,.13.33,4.46,4.46,0,0,0,.61,1.59,2.31,2.31,0,0,1,.31.84.6.6,0,0,0,.06.23,7.84,7.84,0,0,1,1,2.64.27.27,0,0,0,0,.12,12.13,12.13,0,0,1,.73,3.77c0,.42.18.81.25,1.23s.1,1,.14,1.53c.1,1.07-.19,2.13,0,3.21a5.2,5.2,0,0,1-.29,2.3.22.22,0,0,0,0,.11,5.09,5.09,0,0,1-.63,2.07.51.51,0,0,0-.08.34,4,4,0,0,1-.41,2,3.11,3.11,0,0,0-.15.33,4.23,4.23,0,0,1-1,1.92,2.21,2.21,0,0,0-.62,1,.72.72,0,0,1-.49.5c-.64.22-1.19.64-1.82.88a7.66,7.66,0,0,1-1.1.27,4.32,4.32,0,0,0-1.61.71.92.92,0,0,0-.43,1,1.11,1.11,0,0,0,.76.9,2.29,2.29,0,0,0,1.55.1,17.1,17.1,0,0,0,2-.57,4.12,4.12,0,0,1,1-.26,1.9,1.9,0,0,0,.75-.31,11.46,11.46,0,0,0,2.55-2.21,8.63,8.63,0,0,0,.9-1.33,9.43,9.43,0,0,1,.75-1.36,1,1,0,0,0,.21-.43c.29-1.28.9-2.47,1.22-3.74a5.4,5.4,0,0,0,.15-.88c.15-1.55.46-3.08.46-4.64a10.47,10.47,0,0,1,.06-1.36,3.91,3.91,0,0,0-.14-1.1c-.16-.78-.06-1.58-.21-2.37a6.89,6.89,0,0,1-.22-1.7c-.51-.66-.29-1.56-.75-2.24-.07-1-.85-1.84-.91-2.88,0-.34-.32-.6-.42-.93-.22-.69-.6-1.34-.77-2s-.46-1.43-.69-2.14c-.28-.88-.33-1.8-.64-2.67a2.74,2.74,0,0,1-.11-.79c.12-.07.19,0,.26,0,.39.07.83,0,1.11.37.39,0,.66.24,1,.38a8.28,8.28,0,0,1,2.34,1.39,2.48,2.48,0,0,0,1.18.63c.65.12,1.25.56,2,.34a1,1,0,0,1,.7,0c.09.05.18,0,.28,0,.81-.32,1.62-.67,2.46-.93a6.46,6.46,0,0,0,1.4-.43,7.82,7.82,0,0,0,1.77-1,1.6,1.6,0,0,1,1-.41,6.73,6.73,0,0,0,2.34-.39,2.32,2.32,0,0,0,1.11-.76.88.88,0,0,1,.38-.28,3.19,3.19,0,0,0,.81-.61.59.59,0,0,1,.89-.1,30.08,30.08,0,0,1,4.34,3.07,4.32,4.32,0,0,1,1.71,2.84,4.23,4.23,0,0,1,.11,1.42.79.79,0,0,0,.07.4,3.8,3.8,0,0,1,0,1.54c0,.19-.16.2-.32.15-.42-.12-.84-.26-1.27-.34a14.61,14.61,0,0,0-2.62-.36,5.22,5.22,0,0,0-1.48.17,2.28,2.28,0,0,0-1,.65,5.3,5.3,0,0,0-1.1,1.75,16.2,16.2,0,0,0-.62,2.37,3.65,3.65,0,0,0,0,1.47,5.88,5.88,0,0,0,.87,1.86,1.23,1.23,0,0,0,.86.48,21.82,21.82,0,0,0,3.12.51,2.16,2.16,0,0,0,.71-.08,7.35,7.35,0,0,0,2.88-1.65,2.35,2.35,0,0,0,.83-1.25.59.59,0,0,1,.2-.29c.19-.15.35-.28.28-.59s.14-.45.36-.58.42,0,.6.13a2.34,2.34,0,0,1,.71.79,2.53,2.53,0,0,0,.57.76,4.3,4.3,0,0,1,1.16,1.86c.28.78.56,1.57.81,2.36a1.37,1.37,0,0,1,0,.35,1.82,1.82,0,0,0,.16.88,4.78,4.78,0,0,1,.4,2.32c0,.18,0,.36,0,.54.07.85-.32,1.26-1.19,1.35-.69.07-1.37.22-2.06.32a1.06,1.06,0,0,0-.33.14,10.62,10.62,0,0,1-1.42.74,4.41,4.41,0,0,0-1.38,1.09,8.18,8.18,0,0,0-2.05,3,1.43,1.43,0,0,0-.08.76,19.79,19.79,0,0,0,.22,2,2.64,2.64,0,0,0,.26.71c.27.46.41,1,.71,1.44a11.06,11.06,0,0,0,1,1.51,10,10,0,0,0,3,2.42,5.63,5.63,0,0,0,1.5.5,13.75,13.75,0,0,0,1.69,0,13.1,13.1,0,0,0,2.8-.46,4.83,4.83,0,0,0,1.72-.8c.28-.18.35-.53.58-.76s.61-.63.91-.95a1.5,1.5,0,0,0,.4-1,9.34,9.34,0,0,1,.14-1.67,2.82,2.82,0,0,0,.06-1.12.58.58,0,0,1,0-.35,1.21,1.21,0,0,0,0-1,7.49,7.49,0,0,0-.52-1.39,2.85,2.85,0,0,1-.55-1.18c0-.14-.14-.23-.24-.34a2.81,2.81,0,0,1-.4-.51,7.2,7.2,0,0,0-1.11-1.29,1.34,1.34,0,0,1-.27-.31,7.88,7.88,0,0,1-.63-2.4c-.07-.8,0-1.59,0-2.38a.68.68,0,0,1,0-.29,1,1,0,0,0-.13-1.12.53.53,0,0,1-.11-.21c-.35-1.14-.89-2.21-1.26-3.34a1.43,1.43,0,0,0-.08-.22,2.37,2.37,0,0,1-.4-1c-.06-.47-.46-.81-.72-1.2-.37-.58-.84-1.1-1.22-1.68a2.27,2.27,0,0,0-.87-.79,9,9,0,0,1-1.42-1.1,1,1,0,0,1-.32-.69c0-.22,0-.44,0-.66,0-.67.06-1.34.06-2a9.36,9.36,0,0,0-.38-2.47,2.36,2.36,0,0,1-.1-.46.83.83,0,0,0-.21-.61c-.36-.33-.55-.78-.87-1.13a3.92,3.92,0,0,0-.92-.76,5.72,5.72,0,0,1-.61-.46,10.26,10.26,0,0,0-2-1.43,5.76,5.76,0,0,1-1.14-.75,10.31,10.31,0,0,0-1.45-.81c-.18-.09-.32-.22-.25-.42.21-.54.22-1.13.46-1.67a.41.41,0,0,1,.46-.28,3.13,3.13,0,0,1,1.17.2.74.74,0,0,0,.46.09,12,12,0,0,0,2-.6,9.11,9.11,0,0,0,3-2.37,1.74,1.74,0,0,0,.39-.67,5.64,5.64,0,0,0,.54-1.88,1.73,1.73,0,0,1,.12-.51,4.29,4.29,0,0,0-.39-2.71,5.31,5.31,0,0,1-.31-.84,2.61,2.61,0,0,0-.51-.94,1.41,1.41,0,0,1-.31-.56.61.61,0,0,1,.55-.2c.55.15,1.12,0,1.67.11a1.59,1.59,0,0,0,.53,0,8.11,8.11,0,0,1,1.83.28A18.09,18.09,0,0,0,141,71c1.05.1,2.12.07,3.15.26,1.18.21,2.38.11,3.56.33a4,4,0,0,0,.77-.05c.89,0,1.77.19,2.66.21a12.37,12.37,0,0,1,1.72.07,8.72,8.72,0,0,0,1.84.12,7.52,7.52,0,0,1,1.24.16c1.13.11,2.28,0,3.39.25s2.29.15,3.44.25c.65.06,1.31.11,2,.22,1,.17,2.1.15,3.14.23,1.27.1,2.54.08,3.8.29a5.3,5.3,0,0,1,1.76.27.57.57,0,0,0,.23,0,10.09,10.09,0,0,1,3.24.42,7.18,7.18,0,0,0,1.45.23,21.8,21.8,0,0,1,2.29.35c1.33.23,2.67.34,4,.7a.94.94,0,0,0,.53,0,3.43,3.43,0,0,1,1.93,0,6.11,6.11,0,0,0,1.76,0,3.67,3.67,0,0,1,1.41.17,1.09,1.09,0,0,0,.64.07c.52-.14,1,.15,1.51.16A4.65,4.65,0,0,1,194,76a14.83,14.83,0,0,0,2.55.46,17.76,17.76,0,0,1,2.73.51,24.27,24.27,0,0,1,2.37.77c.6.27,1.27.27,1.86.57s1.28.37,1.87.74a2.22,2.22,0,0,0,1,.25,5.57,5.57,0,0,1,1.5.47.5.5,0,0,1,.37.35.49.49,0,0,0,.41.39,13.28,13.28,0,0,1,1.52.33.7.7,0,0,0,.35,0,2,2,0,0,0,1.35-1.1,1.63,1.63,0,0,0-.14-1.84,2.07,2.07,0,0,1-.45-1.49,1.92,1.92,0,0,0,0-.24c0-.21-.26-.42-.1-.62a1.69,1.69,0,0,1,.59-.37c.63-.31,2,0,2.23.72.12.35.29.67,0,1a.48.48,0,0,0-.05.35,1.65,1.65,0,0,1-.21.8c-.1.2-.27.4-.15.67,0,.09,0,.18-.08.27-.47.55-.77,1.23-1.25,1.78a.61.61,0,0,0-.11.21,1.67,1.67,0,0,0,1.48,1.64,5.25,5.25,0,0,1,1.19-.06,2.06,2.06,0,0,1,1.21.9.7.7,0,0,1-.07.79c-.25.34-.59.58-.82.94s-1,.16-1.29,0-.65-.45-1-.65-1.75-.12-2,.32-.81,1.13-.64,1.86a1.5,1.5,0,0,0,.88,1.06,3.14,3.14,0,0,1,1.48,1.63,1.86,1.86,0,0,1,.19,1.14c0,.69-.53,1-1,1.34-.17.14-.6,0-.65-.34-.12-.73-.74-1.11-1.12-1.64a1.88,1.88,0,0,0-2.08,0,1.11,1.11,0,0,1-.88.26.84.84,0,0,0-.42,0,7,7,0,0,1-2.45.41,8.88,8.88,0,0,1-1.46,0,4,4,0,0,0-1.1.23c-1,.23-2,.42-3,.64s-2.13.21-3.18.49a11,11,0,0,1-3.66.4,3.77,3.77,0,0,1-1.51-.3,1.11,1.11,0,0,0-1.33.35,3.7,3.7,0,0,0-.62,1.07,1.57,1.57,0,0,1-.63.76,1.41,1.41,0,0,1-1,.2,6.1,6.1,0,0,0-1.48,0c-.65.06-1.31-.06-2,0a.4.4,0,0,1-.22-.1c-.58-.51-1.19-.24-1.73,0a4.51,4.51,0,0,1-1.28.47c-1,.13-2,.52-3,.57a15.16,15.16,0,0,0-1.68.34c-.11,0-.19.14-.29.2s-.4.28-.67.17-.26.06-.4.07a7.49,7.49,0,0,1-1.63.26,1.08,1.08,0,0,0-.93.48A2.08,2.08,0,0,0,171,99a2.1,2.1,0,0,1-.2,1.51c-.49,1.11-.83,2.28-1.21,3.43a9,9,0,0,0-.32,2,2.34,2.34,0,0,1-.13.69,2.88,2.88,0,0,0-.22,1.64,1,1,0,0,1,0,.3,1.07,1.07,0,0,0,.8,1.22,2.59,2.59,0,0,1,1.43.93,3.45,3.45,0,0,0,1.19.84c.57.28,1.15.55,1.71.85.31.17.69.11,1,.32s.57.13.77.4c0,.06.18,0,.28,0s.25,0,.35,0a6.31,6.31,0,0,1,1.29.4,6.88,6.88,0,0,0,1.77.61c.54.21,1.15.29,1.71.49.31.1.57.28.88.37a22.59,22.59,0,0,0,2.8.73,7.37,7.37,0,0,1,1.66.43,4.72,4.72,0,0,0,1.34.24,11.55,11.55,0,0,1,1.57.36,16.65,16.65,0,0,0,2.21.45c.38.06.83,0,1.16.3.09.09.22,0,.34,0a4.74,4.74,0,0,1,1.39.26,21.08,21.08,0,0,0,2.94.74c.75.14,1.49.4,2.26.48.52.06,1,.23,1.51.33.31.06.63.31,1,.39a5.45,5.45,0,0,1,1.91.92,8,8,0,0,1,.85.9,1.27,1.27,0,0,0,1.18.39,11.39,11.39,0,0,1,1.17,0,1.36,1.36,0,0,0,1.24-.95c.09-.22.18-.44.28-.65.21-.41.37-.45.75-.21a1.29,1.29,0,0,1,.26,2.08,2,2,0,0,1-1.77.79,1.3,1.3,0,0,0-1,.36c-.33.25-.42.69-.79.88a5.75,5.75,0,0,1-.1.93,5.77,5.77,0,0,0,0,.72c0,.08,0,.19.07.22.55.17.8,1,1.55.72a.54.54,0,0,1,.41.05.79.79,0,0,0,.69,0,.73.73,0,0,1,.77.19,7.11,7.11,0,0,1,1.73,2.27,1.86,1.86,0,0,1-.59,1.85,2,2,0,0,1-1.16.12c-.36-.07-.78-.05-.95-.51a.29.29,0,0,0-.29-.17.88.88,0,0,1-.29,0c-.85-.44-1.47.07-2.12.5a.42.42,0,0,0-.23.32,2.36,2.36,0,0,1-.3,1.07,1.06,1.06,0,0,0,.38,1.33c.4.29.6.77,1,1a.48.48,0,0,1,.12.21c.19.5.48,1,.65,1.46a2.77,2.77,0,0,1-.12,2.63,1.3,1.3,0,0,1-1.16.66,1.21,1.21,0,0,1-1.19-.82,3.54,3.54,0,0,1-.19-2.67.56.56,0,0,0-.06-.56,2.16,2.16,0,0,0-2-1,.61.61,0,0,1-.3,0,1.8,1.8,0,0,0-1.54.28.35.35,0,0,1-.17.06c-.72,0-1.42.32-2.13.22a9.09,9.09,0,0,0-1.4.15,2.32,2.32,0,0,1-.59-.05,1.44,1.44,0,0,0-.77,0,1.64,1.64,0,0,1-1.17-.11,1.37,1.37,0,0,0-.75-.11,8,8,0,0,1-1.55,0c-.8-.11-1.61.06-2.38-.11a20.33,20.33,0,0,1-2.47-.31,1,1,0,0,0-.76.07,7.19,7.19,0,0,1-2.19.55,3.62,3.62,0,0,1-1.6-.15,2.36,2.36,0,0,0-1.86.35,2.28,2.28,0,0,1-.9.3,19.74,19.74,0,0,1-2.18.32,3.1,3.1,0,0,0-1.09.29c-.47.18-1,.22-1.44.38a7.81,7.81,0,0,1-1.22.16,21.67,21.67,0,0,1-3.11.39,3,3,0,0,1-.42,0,2.33,2.33,0,0,0-1.6.29,3,3,0,0,1-1,.24c-.59.12-1.17.26-1.76.33a6.93,6.93,0,0,1-2.13.11.57.57,0,0,0-.29,0c-.89.23-1.81.22-2.71.37a12.93,12.93,0,0,1-2.06.1,11.22,11.22,0,0,0-2.38.17,2.82,2.82,0,0,1-.71,0c-.55,0-1,.29-1.58.3-1.06,0-2.12.19-3.19.14-.78,0-1.55.11-2.33.07s-1.27-.06-1.91-.07-1.19,0-1.79,0c-1.09,0-2.18,0-3.26,0a1.49,1.49,0,0,0-.52.07,1.24,1.24,0,0,1-.35.1c-.85-.05-1.69.15-2.54.1-1-.06-2.06.09-3.09.13s-2.07,0-3.1.05c-.88,0-1.74-.12-2.61-.14a26.2,26.2,0,0,1-3.43-.47,15.87,15.87,0,0,1-2.79-.64,13.89,13.89,0,0,0-1.51-.32,1,1,0,0,0-.75.14c-.33.29-.62.17-1,.09a16.6,16.6,0,0,0-1.8-.32c-.71-.08-1.33-.39-2-.51a13.25,13.25,0,0,1-1.41-.18c-.26-.07-.56,0-.81-.18s-.39.07-.63,0a13.56,13.56,0,0,0-2.4-.66c-.82-.12-1.55-.48-2.36-.6a4.1,4.1,0,0,1-1.45-.53,3.62,3.62,0,0,0-.92-.34,7.57,7.57,0,0,1-2.14-.7c-.22-.14-.46-.08-.68-.17a9.82,9.82,0,0,0-2.06-.63,5.9,5.9,0,0,1-1-.46c-1-.4-2.1-.77-3.11-1.22a18.9,18.9,0,0,1-2.89-1.33,9.43,9.43,0,0,1-1.64-1.07.55.55,0,0,0-.19-.15,6.28,6.28,0,0,1-1.66-1.23,1.46,1.46,0,0,0-1.38-.4c-.77.21-1.25-.27-1.74-.68a4.59,4.59,0,0,1-.8-.85,20.51,20.51,0,0,1-1.59-2A6.85,6.85,0,0,0,84.87,123c-.3-.3-.44-.71-.73-1a1.28,1.28,0,0,0-1.5-.19,1.54,1.54,0,0,0-.86,2A2.4,2.4,0,0,1,81.45,125.3Z" transform="translate(-36.99 -46.1)" fill="#fff" fill-rule="evenodd"/><path d="M181.7,71.93a2.13,2.13,0,0,1,1-.53c1.85-.68,3.65-1.51,5.42-2.37,1.06-.51,2.12-1,3.14-1.6a4.87,4.87,0,0,1,1.15-.35c-.18.32-.2.63-.35.91a1.77,1.77,0,0,0,.45,1.65,4.75,4.75,0,0,0,.75.47.33.33,0,0,0,.29,0c.41-.21.93,0,1.3-.38a.31.31,0,0,1,.17-.05,3.85,3.85,0,0,0,2-.84,3.12,3.12,0,0,1,.49-.23,31.19,31.19,0,0,0,3.95-1.9c.26-.15.56-.24.81-.4.78-.5,1.54-1,2.32-1.54.49-.32,1-.61,1.55-.95a.74.74,0,0,1-.15.62,4.25,4.25,0,0,0-.55,1,1.52,1.52,0,0,0,.74,2.09,1.62,1.62,0,0,0,1.79-.21,25.38,25.38,0,0,1,2.42-1.54c.65-.41,1.22-1,1.91-1.31a24.93,24.93,0,0,0,2.91-2c.32-.24.7-.33,1-.56a44.22,44.22,0,0,1,4.12-2.63l.47-.26a.5.5,0,0,1,.66,0,1.66,1.66,0,0,0,1.4.33,23.42,23.42,0,0,0,3.43-.49c1.48-.26,2.94-.57,4.42-.78A23.52,23.52,0,0,1,234,57.8a4.71,4.71,0,0,1,1.85.31,2.67,2.67,0,0,0,1.35.07,3.09,3.09,0,0,1,1.25,0c1.5.37,3,.65,4.53,1.11a5.93,5.93,0,0,0,1.68.36,1.11,1.11,0,0,1,.35.08c.9.33,1.79.68,2.7,1,.57.19,1,.55,1.6.78a20.18,20.18,0,0,1,2,1.15,5,5,0,0,1,1.45,1.15,2.71,2.71,0,0,0,.4.35c.65.48,1.33.93,2,1.43s1.25,1.1,1.9,1.61a6.8,6.8,0,0,1,1.36,1.48,5.45,5.45,0,0,1,.86,1.88,7.35,7.35,0,0,0,.27.79,5,5,0,0,1,.31,1.68c0,.52.11,1,.14,1.55a3.92,3.92,0,0,1-1.3,3.21c-.36.34-.6.76-1,1.08s-.93.93-1.39,1.39a7.66,7.66,0,0,1-1.26.79A11.27,11.27,0,0,1,253,82.17a14.07,14.07,0,0,1-1.65.48c-1,.26-2.05.55-3.08.77-.46.1-.94.06-1.4.19s-1.16.23-1.74.36a23.92,23.92,0,0,1-2.54.38,11.55,11.55,0,0,1-1.95,0c-.25,0-.46.12-.71.09a4.63,4.63,0,0,1-2-.56,1,1,0,0,0-1.54.41,2.52,2.52,0,0,1-.6.73.72.72,0,0,0-.21.81,2.14,2.14,0,0,0,.43.9,1.67,1.67,0,0,1,.53.77.59.59,0,0,0,.38.36.49.49,0,0,1,.31.27.6.6,0,0,1,.12.45c-.07.24-.27.08-.4.13a.86.86,0,0,1-.73-.12,12.93,12.93,0,0,0-1.42-.41c-.25-.09-.54-.14-.8-.21-1.07-.3-2.13-.62-3.18-1-1.3-.44-2.58-.91-3.86-1.39A2,2,0,0,1,226,85a2.23,2.23,0,0,0-1.68-.63.5.5,0,0,0-.41.19c-.21.4-.62.64-.75,1.08-.05.15-.15.31-.1.46.18.51-.05,1,.16,1.55a1.18,1.18,0,0,1-1-.14,16.24,16.24,0,0,0-1.83-.89,14.74,14.74,0,0,1-1.89-1.2c-.15-.07-.14-.21-.12-.36s.26-.47.26-.73a4.52,4.52,0,0,0-.21-2.57,2.81,2.81,0,0,0-.34-.55.79.79,0,0,1-.23-.34,1.76,1.76,0,0,0-1.1-1.17,3.42,3.42,0,0,1-.42-.23c-.24-.15-.33-.33-.15-.59a.64.64,0,0,0,.14-.33,8.21,8.21,0,0,1,.52-2.24,3.07,3.07,0,0,0-.67-2.89,2.2,2.2,0,0,0-1.55-.9,1.71,1.71,0,0,1-.83-.3,2.79,2.79,0,0,0-1.56-.31,3,3,0,0,0-2.2.52c-.24.2-.55.29-.8.49a2.3,2.3,0,0,0-.8,1.22c-.14.44-.33.86-.49,1.28-.07.16-.2.31-.36.27-.35-.09-.7.05-1-.08a7.17,7.17,0,0,0-2.06-.34,16.2,16.2,0,0,1-2.67-.54c-1-.25-2-.65-3-.82a6.59,6.59,0,0,1-1.39-.35,1.64,1.64,0,0,0-.81-.14,5.28,5.28,0,0,1-1.19-.06c-1.66-.2-3.33-.3-5-.53s-3.15-.19-4.7-.42c-1.14-.16-2.29-.08-3.42-.28A2.12,2.12,0,0,1,181.7,71.93Z" transform="translate(-36.99 -46.1)" fill="#fff" fill-rule="evenodd"/><path d="M130.08,59.9c-.08.59,0,1.2-.1,1.82a7,7,0,0,0,0,1.12,11.57,11.57,0,0,1-.42,2,4.31,4.31,0,0,0-.09,1,1,1,0,0,1-.6.89c-.29.13-.57.28-.87.38a1.23,1.23,0,0,0-.44.3c-.64.6-.66.85,0,1.44a5,5,0,0,0,1.17.81,3.17,3.17,0,0,1,.91.64c.43.43,1,.58,1.43,1.06a3.33,3.33,0,0,1,.39.5,8.88,8.88,0,0,0,.67,1,3.76,3.76,0,0,1,.63,2.13,2.43,2.43,0,0,1-.54,2.07.57.57,0,0,0-.11.33.59.59,0,0,1-.28.45,2.2,2.2,0,0,0-.6.45c-.45.42-1.75,0-1.79-.56a4.24,4.24,0,0,0-.84-1.94c-.11-.18-.2-.31-.47-.24a1.69,1.69,0,0,1-.59,0,2.07,2.07,0,0,0-1.57.56,1.7,1.7,0,0,0-.61,1.3,8.12,8.12,0,0,1-.4,2.8c-.12.34-.41.6-.41.92a3.38,3.38,0,0,1-.26,1,2.18,2.18,0,0,1-.61.83,3.34,3.34,0,0,0-.44.48,1.94,1.94,0,0,1-1.3.85,11.41,11.41,0,0,1-1.31,0,.21.21,0,0,1-.11,0c-.22-.32-.38-.68-.6-1s0-.45.08-.68c.18-.39.15-.87.53-1.17a.13.13,0,0,0,0-.11c-.17-.72.28-1.32.45-2a2.07,2.07,0,0,0,.15-1.12,3.19,3.19,0,0,0-.86-1.58,3.53,3.53,0,0,0-1.19-.53.37.37,0,0,0-.28.07c-.42.24-.92.35-1.08.92a1.2,1.2,0,0,1-.57.66,1.39,1.39,0,0,0-.66.67c0,.13-.16.16-.27.21s-.2.07-.2.11c0,.62-.72.78-.92,1.32-.28.82-.72,1.07-1.43,1A2,2,0,0,1,112,79.7a.46.46,0,0,1,0-.23,5.74,5.74,0,0,1,.49-1.89,1.33,1.33,0,0,1,1.32-.89c.11,0,.18-.07.25-.14a4.61,4.61,0,0,1,.4-.37,1.51,1.51,0,0,0,.54-2.11,2.4,2.4,0,0,0-.45-.77,1.36,1.36,0,0,1-.33-1.11c.1-1,0-1.91.17-2.85a4.7,4.7,0,0,1,.18-1.06,1.12,1.12,0,0,0,.06-.54,12.38,12.38,0,0,1,0-2.79,6.79,6.79,0,0,0-.48-2.39c-.36-1-.53-2.12-.82-3.18a13.8,13.8,0,0,1-.46-2.14,10.4,10.4,0,0,0-.31-1.09c-.08-.31-.17-.62-.28-.93a2.17,2.17,0,0,0-1.47-1.33,1.25,1.25,0,0,0-1.2.09,1.35,1.35,0,0,1-.65.28.34.34,0,0,0-.35.34c0,.15,0,.29-.2.31a1,1,0,0,1-.63-.38.89.89,0,0,1,.14-.85c.49-.5.81-1.13,1.34-1.6a11.33,11.33,0,0,1,2.72-1.91,15.62,15.62,0,0,1,1.94-.76,13.31,13.31,0,0,1,2.67-.29,12.32,12.32,0,0,1,2.19,0,7.66,7.66,0,0,0,.82,0,3.9,3.9,0,0,1,1.7.38,5.12,5.12,0,0,0,1.22.46,1.13,1.13,0,0,1,.67.36,1.65,1.65,0,0,0,.75.46c.92.39,1.65,1.09,2.52,1.56a.53.53,0,0,1,.16.24,1.38,1.38,0,0,0,.41.51,7.47,7.47,0,0,1,2,2.26,10.15,10.15,0,0,1,.58,1.74c0,.07,0,.17,0,.23A4.63,4.63,0,0,1,130.08,59.9Z" transform="translate(-36.99 -46.1)" fill="#fff" fill-rule="evenodd"/><path d="M84,57.56c-.12,0-.17-.09-.24-.16a1.43,1.43,0,0,0-1.45-.28,5.4,5.4,0,0,0-.67.25,1.25,1.25,0,0,0-.78,1.49,1.63,1.63,0,0,1,.08.7c-.08.35.1.54.47.61a2.08,2.08,0,0,1,.68.22,1,1,0,0,0,1.32-.2c.28-.23.54-.45.54-.83a.43.43,0,0,1,.41.36,2.47,2.47,0,0,0,.66,1,3.2,3.2,0,0,1,.78,1.18c0,.17.23.21.33.34a3.83,3.83,0,0,1,.47.69,2,2,0,0,0,.86,1,3,3,0,0,0,1.25.6,1.62,1.62,0,0,0,1.52-.71,2.2,2.2,0,0,1,.59-.45A5,5,0,0,0,93,61.1c.08-.18.1-.39.36-.43.1,0,.16-.1.2-.2.18-.46.59-.76.81-1.18a.9.9,0,0,1,1-.48,1.62,1.62,0,0,0,1.1-.22,2.53,2.53,0,0,0,.58-.47c.47-.68,1.18-1.14,1.63-1.83l.1-.15c.18-.37.38-.64.88-.45.15.06.38,0,.57-.07a3.54,3.54,0,0,1,2.37.35,2.13,2.13,0,0,0,.93.2c.72,0,.92.28,1,1a8,8,0,0,1-.41,2.52c-.12.44-.24.88-.35,1.33A12.33,12.33,0,0,1,102,65a5.21,5.21,0,0,0-.28.52,1.13,1.13,0,0,1-1.31.68,1.12,1.12,0,0,0-.48,0,6.42,6.42,0,0,0-2.69,1.36,1.42,1.42,0,0,1-.12.13c-.49.48-.68.51-1-.08A4.84,4.84,0,0,0,94,65.66a3.89,3.89,0,0,0-2.1-.55,4.2,4.2,0,0,0-2.13.81c-.28.2-.42.56-.67.83a5.74,5.74,0,0,0-1.58,2.82c-.06.31-.15.34-.4.19a1.48,1.48,0,0,1-.69-.81,4.08,4.08,0,0,0-1.73-2c-.08,0-.18-.06-.24-.16-.43-.78-1-1.47-1.37-2.3a2.66,2.66,0,0,0-.73-1c-.53-.42-.76-1.12-1.4-1.44a1.14,1.14,0,0,1-.42-.5,13.86,13.86,0,0,1-.79-1.47,1.54,1.54,0,0,0-.48-.66,3.08,3.08,0,0,1-.73-1c0-.1-.07-.26-.17-.3-.52-.23-.64-.79-1-1.14a1.53,1.53,0,0,1-.32-.57,1.57,1.57,0,0,0-.66-.89c-.2-.1-.15-.31-.27-.45a11.33,11.33,0,0,1-.71-1,.32.32,0,0,1-.07-.38c.08-.12.2-.1.32-.09.61,0,1.23.06,1.84.07a8.53,8.53,0,0,1,2.06.34,5.82,5.82,0,0,0,1.18,0,1.89,1.89,0,0,1,.41,0,7.32,7.32,0,0,0,2.19.28,1,1,0,0,1,.46.11,5.33,5.33,0,0,0,1.05.41c.45.12.56.51.19.79-.57.45-.59,1.15-.92,1.7l-.08.16Z" transform="translate(-36.99 -46.1)" fill="#fff" fill-rule="evenodd"/><path d="M109.59,76.37a12.13,12.13,0,0,1-1.68-1.58,3.37,3.37,0,0,0-1.35-.83c-.56-.26-.63-.33-.39-.91a5.83,5.83,0,0,0,.11-2.16c0-.19-.17-.3-.21-.48a2.1,2.1,0,0,1,.38-1.86,8.3,8.3,0,0,0,.93-1.92c.25-.61.58-1.18.79-1.81.13-.39.33-.77.47-1.15a7,7,0,0,0,.36-1.31,1.4,1.4,0,0,1,.26-.78.37.37,0,0,0,.06-.33c-.12-.65.26-1.24.23-1.88a.24.24,0,0,1,.21-.26.26.26,0,0,1,.28.26,10.61,10.61,0,0,0,.72,2.39,1.63,1.63,0,0,1,.09.82,1.18,1.18,0,0,0,0,.53,9.08,9.08,0,0,1,.27,1.86,12.11,12.11,0,0,1,.14,2.61c-.17,1,0,2-.12,3a.58.58,0,0,1,0,.23c-.28.71-.2,1.49-.44,2.2a1.48,1.48,0,0,0,0,.93c0,.14.07.31,0,.4-.31.29-.35.72-.6,1A1.56,1.56,0,0,0,109.59,76.37Z" transform="translate(-36.99 -46.1)" fill="#fff" fill-rule="evenodd"/><path d="M133.34,116.86a1.73,1.73,0,0,1,.32-1,.38.38,0,0,1,.59-.16,6.52,6.52,0,0,1,.76.48,14.58,14.58,0,0,1,2,1.75,6.7,6.7,0,0,0,.77.74,2.37,2.37,0,0,0,1.77.5,1.52,1.52,0,0,0,1.18-.7c.12-.18.34-.25.46-.45a2.33,2.33,0,0,0-1.41-3.29,2.15,2.15,0,0,0-1.4.17.67.67,0,0,1-.94-.18,1.09,1.09,0,0,0-.5-.4c-.31-.1-.31-.35-.26-.59a.45.45,0,0,1,.54-.43c.1,0,.2,0,.29,0,.25,0,.48-.44.76,0,.12.21.51.19.58.54s.29.27.43.27c.54,0,1,.25,1.56.22a1.22,1.22,0,0,1,1.31.89,12.64,12.64,0,0,1,.67,2.5c.07.48-.16.92-.09,1.4a.34.34,0,0,1-.12.26,2.07,2.07,0,0,0-.56,1.17,1.66,1.66,0,0,1-1.35,1.15c-.3.09-.62.13-.92.24a2.82,2.82,0,0,1-2,.13c-.24-.09-.5,0-.76-.06a1.68,1.68,0,0,1-1.23-.72s0,0,0,0a5.82,5.82,0,0,1-1.77-2.47.72.72,0,0,0-.12-.21C133.29,118.16,133.43,117.48,133.34,116.86Z" transform="translate(-36.99 -46.1)" fill="#fff" fill-rule="evenodd"/><path d="M114.67,86.69c-.31,0-.62-.22-.91.06-.06.06-.15,0-.22,0s-.16-.14-.27-.1c-.56.23-1.1-.08-1.65-.06a.51.51,0,0,1-.33-.11c-.09-.06-.16-.16-.25-.17-.83-.11-1.32-.75-1.91-1.23-.24-.2-.54-.32-.78-.54-.52-.49-.57-.85-.08-1.37a4.37,4.37,0,0,1,.89-.88c.19-.11.32-.13.47,0A8,8,0,0,0,112.34,84c.1,0,.19.14.29.2s.21.15.26.13c.5-.27,1,.15,1.43.07a7.17,7.17,0,0,0,1.37-.32.64.64,0,0,1,.87.59.81.81,0,0,0,.27.67c.3.35.25.58-.18.61-.62,0-1,.49-1.53.69C115,86.65,114.83,86.75,114.67,86.69Z" transform="translate(-36.99 -46.1)" fill="#fff" fill-rule="evenodd"/><path d="M104.48,67.75a13,13,0,0,1-1.18-.82.25.25,0,0,1-.07-.37c.29-.46.54-1,.78-1.45a5,5,0,0,0,.72-1.69.88.88,0,0,1,.07-.23,5.33,5.33,0,0,0,.5-1.32c.06-.48.18-.93.27-1.4a10.55,10.55,0,0,0,.13-2,3.36,3.36,0,0,1,.08-1c0-.19.16-.29.35-.15s.69.41.68.9a.26.26,0,0,0,.08.21c.55.46.42,1.1.41,1.67a6.62,6.62,0,0,1-.57,2.66c-.19.41-.28.87-.43,1.3-.24.72-.74,1.33-1,2A5.7,5.7,0,0,1,104.48,67.75Z" transform="translate(-36.99 -46.1)" fill="#fff" fill-rule="evenodd"/><path d="M128.32,100.6a1.72,1.72,0,0,1-.59,0,.86.86,0,0,1-.78-.95,5.5,5.5,0,0,1,.37-1.8,2.09,2.09,0,0,1,2.06-1.14,5.54,5.54,0,0,1,2.08.48.86.86,0,0,0,.35.06c.47.06.55.19.39.64a1.4,1.4,0,0,1-.56.81.52.52,0,0,0-.16.17A3.35,3.35,0,0,1,128.32,100.6Z" transform="translate(-36.99 -46.1)" fill="#fff" fill-rule="evenodd"/><path d="M95.9,50a3.68,3.68,0,0,0,.47,0,.39.39,0,0,1,.46.19.63.63,0,0,0,.33.33s.12.09.11.13c-.11.43.29.86,0,1.3a1.4,1.4,0,0,0-.21,1.24c.13.44-.21.79-.33,1.17A2.81,2.81,0,0,1,96,55.42c-.16.16-.26.15-.39,0a1.64,1.64,0,0,1-.26-.33,5.31,5.31,0,0,0-.84-.93,3.77,3.77,0,0,1-.63-2,1.68,1.68,0,0,1,.52-1.45l.08-.09C94.73,50,95.31,50,95.9,50Z" transform="translate(-36.99 -46.1)" fill="#fff" fill-rule="evenodd"/><path d="M91.14,58.17a1.7,1.7,0,0,1-.29.86,1.77,1.77,0,0,0-.31.7,1.1,1.1,0,0,1-.75.77c-.11,0-.26,0-.33.13-.45.42-.83.11-1.17-.14a1.55,1.55,0,0,1-.65-1,1,1,0,0,0-.09-.35c-.37-.67,0-1.12.36-1.68s1.13-.67,1.68-1c.23-.15.49.07.68.23s.24.28.41.34a.4.4,0,0,1,.33.53C91,57.81,91.27,58,91.14,58.17Z" transform="translate(-36.99 -46.1)" fill="#fff" fill-rule="evenodd"/><path d="M193.73,95v0C193.72,94.9,193.72,94.91,193.73,95Z" transform="translate(-36.99 -46.1)" fill="#fff" fill-rule="evenodd"/><polygon points="156.74 48.87 156.72 48.84 156.75 48.86 156.74 48.87" fill="#fff" fill-rule="evenodd"/></svg>